<svg xmlns="http://www.w3.org/2000/svg" version="1.1" xmlns:xlink="http://www.w3.org/1999/xlink" xmlns:svgjs="http://svgjs.dev/svgjs" width="1000" height="1000" viewBox="0 0 1000 1000"><rect width="1000" height="1000" fill="#ffffff"></rect><g transform="matrix(0.7,0,0,0.7,149.84897959183672,150.19913061224486)"><svg viewBox="0 0 343 343" data-background-color="#ffffff" preserveAspectRatio="xMidYMid meet" height="999" width="1000" xmlns="http://www.w3.org/2000/svg" xmlns:xlink="http://www.w3.org/1999/xlink"><g id="tight-bounds" transform="matrix(1,0,0,1,0.07400000000001228,0.07400000000001228)"><svg viewBox="0 0 342.8515585177538 342.8515585177538" height="342.8515585177538" width="342.8515585177538"><g><svg></svg></g><g><svg viewBox="0 0 342.8515585177538 342.8515585177538" height="342.8515585177538" width="342.8515585177538"><g><path d="M0 171.426c0-94.676 76.75-171.426 171.426-171.426 94.676 0 171.426 76.75 171.426 171.426 0 94.676-76.75 171.426-171.426 171.426-94.676 0-171.426-76.75-171.426-171.426zM171.426 339.942c93.069 0 168.516-75.447 168.516-168.516 0-93.069-75.447-168.516-168.516-168.516-93.069 0-168.516 75.447-168.516 168.516 0 93.069 75.447 168.516 168.516 168.516z" data-fill-palette-color="tertiary" fill="#000000" stroke="transparent"></path><ellipse rx="164.56874808852183" ry="164.56874808852183" cx="171.4257792588769" cy="171.4257792588769" fill="#000000" stroke="transparent" stroke-width="0" fill-opacity="1" data-fill-palette-color="tertiary"></ellipse></g><g transform="matrix(1,0,0,1,64.84655864529836,129.1889058770687)"><svg viewBox="0 0 213.15844122715708 84.47374676361642" height="84.47374676361642" width="213.15844122715708"><g><svg viewBox="0 0 213.15844122715708 84.47374676361642" height="84.47374676361642" width="213.15844122715708"><g><svg viewBox="0 0 213.15844122715708 84.47374676361642" height="84.47374676361642" width="213.15844122715708"><g transform="matrix(1,0,0,1,0,52.20816441855982)"><svg viewBox="0 0 213.15844122715708 32.26558234505661" height="32.26558234505661" width="213.15844122715708"><g id="textblocktransform"><svg viewBox="0 0 213.15844122715708 32.26558234505661" height="32.26558234505661" width="213.15844122715708" id="textblock"><g><svg viewBox="0 0 213.15844122715708 32.26558234505661" height="32.26558234505661" width="213.15844122715708"><g transform="matrix(1,0,0,1,0,0)"><svg width="213.15844122715708" viewBox="1.149999976158142 -36.599998474121094 321.3699951171875 48.64999771118164" height="32.26558234505661" data-palette-color="#ffffff"><path d="M13.7 0L1.15 0 1.15-1.05 1.95-1.3Q3-1.7 3.38-2.35 3.75-3 3.75-4.1L3.75-4.1Q3.8-6.95 3.8-9.83 3.8-12.7 3.8-15.6L3.8-15.6 3.8-17.4Q3.8-20.3 3.78-23.18 3.75-26.05 3.75-28.95L3.75-28.95Q3.75-30.15 3.4-30.78 3.05-31.4 1.95-31.75L1.95-31.75 1.15-32 1.15-33.05 15.25-33.05Q21.25-33.05 23.95-30.83 26.65-28.6 26.65-25.2L26.65-25.2Q26.65-22.6 24.75-20.53 22.85-18.45 18.1-17.55L18.1-17.55Q23.6-16.95 26.05-14.7 28.5-12.45 28.5-9.2L28.5-9.2Q28.5-7.6 27.8-5.98 27.1-4.35 25.43-3 23.75-1.65 20.9-0.83 18.05 0 13.7 0L13.7 0ZM10.9-31.6L10.9-17.9 13.25-17.9Q16.65-17.9 18.18-19.43 19.7-20.95 19.7-24.65L19.7-24.65Q19.7-28.5 18.3-30.05 16.9-31.6 13.9-31.6L13.9-31.6 10.9-31.6ZM10.9-16.45L10.9-1.45 13.65-1.45Q17.4-1.45 19.25-3.3 21.1-5.15 21.1-9.25L21.1-9.25Q21.1-13.2 19.33-14.83 17.55-16.45 13.5-16.45L13.5-16.45 10.9-16.45ZM38 0.7L38 0.7Q35.15 0.7 33.17-0.93 31.2-2.55 31.2-5.6L31.2-5.6Q31.2-8 33.52-10.03 35.85-12.05 40.85-13L40.85-13Q41.7-13.2 42.82-13.38 43.95-13.55 45.05-13.75L45.05-13.75 45.05-17.3Q45.05-20.7 44.2-22 43.35-23.3 41.5-23.3L41.5-23.3 41.35-23.3Q40.2-23.3 39.52-22.58 38.85-21.85 38.65-20.2L38.65-20.2 38.5-19.55Q38.35-17.55 37.45-16.63 36.55-15.7 35.2-15.7L35.2-15.7Q33.95-15.7 33.12-16.48 32.3-17.25 32.3-18.5L32.3-18.5Q32.3-20.55 33.7-21.95 35.1-23.35 37.42-24.05 39.75-24.75 42.45-24.75L42.45-24.75Q46.9-24.75 49.25-22.6 51.6-20.45 51.6-15.6L51.6-15.6 51.6-4.45Q51.6-2.3 53.65-2.3L53.65-2.3 54.8-2.3 55.3-1.75Q54.4-0.6 53.3 0.03 52.2 0.65 50.3 0.65L50.3 0.65Q48.15 0.65 46.87-0.38 45.6-1.4 45.2-3.1L45.2-3.1Q43.6-1.4 42.05-0.35 40.5 0.7 38 0.7ZM40.9-2.5L40.9-2.5Q41.9-2.5 42.8-2.95 43.7-3.4 45.05-4.45L45.05-4.45 45.05-12.45Q43.75-12.25 42.4-11.95L42.4-11.95Q40.25-11.45 38.92-10.1 37.6-8.75 37.6-6.45L37.6-6.45Q37.6-4.45 38.52-3.48 39.45-2.5 40.9-2.5ZM68.95 0L56.45 0 56.45-0.95 57.2-1.2Q58.2-1.45 58.57-2.05 58.95-2.65 58.95-3.65L58.95-3.65 58.95-18.3Q58.9-19.4 58.55-19.98 58.2-20.55 57.2-20.75L57.2-20.75 56.45-20.95 56.45-21.85 64.6-24.75 65.2-24.2 65.65-19.8 65.65-19.45Q66.4-20.85 67.55-22.05 68.7-23.25 70.05-24 71.4-24.75 72.75-24.75L72.75-24.75Q74.65-24.75 75.6-23.75 76.55-22.75 76.55-21.2L76.55-21.2Q76.55-19.5 75.6-18.63 74.65-17.75 73.3-17.75L73.3-17.75Q71.3-17.75 69.85-19.55L69.85-19.55 69.75-19.65Q69.25-20.25 68.62-20.33 68-20.4 67.4-19.7L67.4-19.7Q66.9-19.2 66.47-18.53 66.05-17.85 65.7-16.95L65.7-16.95 65.7-3.85Q65.7-2.9 66.1-2.27 66.5-1.65 67.45-1.4L67.45-1.4 68.95-0.95 68.95 0ZM90.69 0L78.19 0 78.19-0.95 78.94-1.2Q79.94-1.45 80.32-2.05 80.69-2.65 80.69-3.65L80.69-3.65 80.69-18.3Q80.64-19.4 80.29-19.98 79.94-20.55 78.94-20.75L78.94-20.75 78.19-20.95 78.19-21.85 86.34-24.75 86.94-24.2 87.39-19.8 87.39-19.45Q88.14-20.85 89.29-22.05 90.44-23.25 91.79-24 93.14-24.75 94.49-24.75L94.49-24.75Q96.39-24.75 97.34-23.75 98.29-22.75 98.29-21.2L98.29-21.2Q98.29-19.5 97.34-18.63 96.39-17.75 95.04-17.75L95.04-17.75Q93.04-17.75 91.59-19.55L91.59-19.55 91.49-19.65Q90.99-20.25 90.37-20.33 89.74-20.4 89.14-19.7L89.14-19.7Q88.64-19.2 88.22-18.53 87.79-17.85 87.44-16.95L87.44-16.95 87.44-3.85Q87.44-2.9 87.84-2.27 88.24-1.65 89.19-1.4L89.19-1.4 90.69-0.95 90.69 0ZM104.34 12.05L104.34 12.05Q102.34 12.05 101.19 11.1 100.04 10.15 100.04 8.6L100.04 8.6Q100.04 7.2 101.02 6.38 101.99 5.55 103.19 5.55L103.19 5.55Q104.44 5.55 105.24 6 106.04 6.45 106.64 7.3L106.64 7.3 106.94 7.7Q108.09 9.1 109.09 7.65L109.09 7.65Q109.74 6.8 110.37 5.55 110.99 4.3 111.74 2.25L111.74 2.25 102.24-20.45Q101.89-21.4 101.44-21.93 100.99-22.45 100.09-22.8L100.09-22.8 99.24-23.1 99.24-24 111.59-24 111.59-23.1 110.54-22.8Q109.44-22.45 109.37-21.73 109.29-21 109.69-19.85L109.69-19.85 114.79-6.55 119.69-19.95Q120.09-21.05 119.99-21.8 119.89-22.55 118.74-22.8L118.74-22.8 117.64-23.1 117.64-24 125.09-24 125.09-23.1 123.99-22.75Q122.89-22.45 122.42-21.88 121.94-21.3 121.54-20.2L121.54-20.2 113.54 1.3Q111.54 6.8 109.47 9.43 107.39 12.05 104.34 12.05ZM131.84-20.3L130.49-20.3 129.54-23.9Q129.24-25.35 128.79-27.13 128.34-28.9 128.01-30.48 127.69-32.05 127.69-32.9L127.69-32.9Q127.69-34.65 128.64-35.63 129.59-36.6 131.14-36.6L131.14-36.6Q132.64-36.6 133.61-35.63 134.59-34.65 134.59-32.9L134.59-32.9Q134.59-32.05 134.26-30.48 133.94-28.9 133.51-27.13 133.09-25.35 132.79-23.9L132.79-23.9 131.84-20.3ZM146.28 0.7L146.28 0.7Q143.89 0.7 141.96 0.18 140.03-0.35 138.28-1.3L138.28-1.3 138.28-7.2 139.64-7.2 141.14-4.35Q142.09-2.5 143.31-1.6 144.53-0.7 146.44-0.7L146.44-0.7Q148.78-0.7 150.19-1.73 151.59-2.75 151.59-4.5L151.59-4.5Q151.59-6.1 150.53-7.1 149.49-8.1 146.78-8.95L146.78-8.95 144.59-9.65Q141.64-10.55 139.91-12.38 138.19-14.2 138.19-16.95L138.19-16.95Q138.19-19.1 139.34-20.88 140.49-22.65 142.69-23.7 144.89-24.75 148.03-24.75L148.03-24.75Q150.09-24.75 151.81-24.28 153.53-23.8 155.19-22.95L155.19-22.95 154.89-17.6 153.59-17.6 152.03-20.45Q151.24-22.05 150.41-22.68 149.59-23.3 147.89-23.3L147.89-23.3Q146.09-23.3 144.71-22.38 143.34-21.45 143.34-19.8L143.34-19.8Q143.34-18.25 144.49-17.28 145.64-16.3 148.19-15.45L148.19-15.45 150.34-14.8Q153.99-13.65 155.53-11.75 157.09-9.85 157.09-7.2L157.09-7.2Q157.09-3.65 154.26-1.48 151.44 0.7 146.28 0.7ZM183.03 0L170.48 0 170.48-1.05 171.28-1.3Q172.33-1.7 172.71-2.35 173.08-3 173.08-4.1L173.08-4.1Q173.13-6.95 173.13-9.83 173.13-12.7 173.13-15.6L173.13-15.6 173.13-17.4Q173.13-20.3 173.11-23.18 173.08-26.05 173.08-28.95L173.08-28.95Q173.08-30.15 172.73-30.78 172.38-31.4 171.28-31.75L171.28-31.75 170.48-32 170.48-33.05 184.58-33.05Q190.58-33.05 193.28-30.83 195.98-28.6 195.98-25.2L195.98-25.2Q195.98-22.6 194.08-20.53 192.18-18.45 187.43-17.55L187.43-17.55Q192.93-16.95 195.38-14.7 197.83-12.45 197.83-9.2L197.83-9.2Q197.83-7.6 197.13-5.98 196.43-4.35 194.76-3 193.08-1.65 190.23-0.83 187.38 0 183.03 0L183.03 0ZM180.23-31.6L180.23-17.9 182.58-17.9Q185.98-17.9 187.51-19.43 189.03-20.95 189.03-24.65L189.03-24.65Q189.03-28.5 187.63-30.05 186.23-31.6 183.23-31.6L183.23-31.6 180.23-31.6ZM180.23-16.45L180.23-1.45 182.98-1.45Q186.73-1.45 188.58-3.3 190.43-5.15 190.43-9.25L190.43-9.25Q190.43-13.2 188.66-14.83 186.88-16.45 182.83-16.45L182.83-16.45 180.23-16.45ZM212.58 0.7L212.58 0.7Q208.88 0.7 206.1-0.85 203.33-2.4 201.8-5.25 200.28-8.1 200.28-12.05L200.28-12.05Q200.28-16 201.9-18.85 203.53-21.7 206.3-23.23 209.08-24.75 212.58-24.75L212.58-24.75Q216.08-24.75 218.85-23.23 221.63-21.7 223.25-18.88 224.88-16.05 224.88-12.05L224.88-12.05Q224.88-8.1 223.35-5.23 221.83-2.35 219.08-0.83 216.33 0.7 212.58 0.7ZM212.58-0.7L212.58-0.7Q214.38-0.7 215.5-1.68 216.63-2.65 217.13-5.1 217.63-7.55 217.63-11.95L217.63-11.95Q217.63-16.4 217.13-18.88 216.63-21.35 215.5-22.33 214.38-23.3 212.58-23.3L212.58-23.3Q210.78-23.3 209.68-22.33 208.58-21.35 208.05-18.88 207.53-16.4 207.53-11.95L207.53-11.95Q207.53-7.55 208.05-5.1 208.58-2.65 209.68-1.68 210.78-0.7 212.58-0.7ZM234.43 0.7L234.43 0.7Q231.58 0.7 229.6-0.93 227.63-2.55 227.63-5.6L227.63-5.6Q227.63-8 229.95-10.03 232.28-12.05 237.28-13L237.28-13Q238.13-13.2 239.25-13.38 240.38-13.55 241.48-13.75L241.48-13.75 241.48-17.3Q241.48-20.7 240.63-22 239.78-23.3 237.93-23.3L237.93-23.3 237.78-23.3Q236.63-23.3 235.95-22.58 235.28-21.85 235.08-20.2L235.08-20.2 234.93-19.55Q234.78-17.55 233.88-16.63 232.98-15.7 231.63-15.7L231.63-15.7Q230.38-15.7 229.55-16.48 228.73-17.25 228.73-18.5L228.73-18.5Q228.73-20.55 230.13-21.95 231.53-23.35 233.85-24.05 236.18-24.75 238.88-24.75L238.88-24.75Q243.33-24.75 245.68-22.6 248.03-20.45 248.03-15.6L248.03-15.6 248.03-4.45Q248.03-2.3 250.08-2.3L250.08-2.3 251.23-2.3 251.73-1.75Q250.83-0.6 249.73 0.03 248.63 0.65 246.73 0.65L246.73 0.65Q244.58 0.65 243.3-0.38 242.03-1.4 241.63-3.1L241.63-3.1Q240.03-1.4 238.48-0.35 236.93 0.7 234.43 0.7ZM237.33-2.5L237.33-2.5Q238.33-2.5 239.23-2.95 240.13-3.4 241.48-4.45L241.48-4.45 241.48-12.45Q240.18-12.25 238.83-11.95L238.83-11.95Q236.68-11.45 235.35-10.1 234.03-8.75 234.03-6.45L234.03-6.45Q234.03-4.45 234.95-3.48 235.88-2.5 237.33-2.5ZM265.37 0L252.87 0 252.87-0.95 253.62-1.2Q254.62-1.45 255-2.05 255.37-2.65 255.37-3.65L255.37-3.65 255.37-18.3Q255.32-19.4 254.97-19.98 254.62-20.55 253.62-20.75L253.62-20.75 252.87-20.95 252.87-21.85 261.02-24.75 261.62-24.2 262.07-19.8 262.07-19.45Q262.82-20.85 263.97-22.05 265.12-23.25 266.47-24 267.82-24.75 269.17-24.75L269.17-24.75Q271.07-24.75 272.02-23.75 272.97-22.75 272.97-21.2L272.97-21.2Q272.97-19.5 272.02-18.63 271.07-17.75 269.72-17.75L269.72-17.75Q267.72-17.75 266.27-19.55L266.27-19.55 266.17-19.65Q265.67-20.25 265.05-20.33 264.42-20.4 263.82-19.7L263.82-19.7Q263.32-19.2 262.9-18.53 262.47-17.85 262.12-16.95L262.12-16.95 262.12-3.85Q262.12-2.9 262.52-2.27 262.92-1.65 263.87-1.4L263.87-1.4 265.37-0.95 265.37 0ZM285.12 0.7L285.12 0.7Q282.17 0.7 279.82-0.63 277.47-1.95 276.15-4.73 274.82-7.5 274.82-11.8L274.82-11.8Q274.82-16.1 276.32-18.98 277.82-21.85 280.32-23.3 282.82-24.75 285.82-24.75L285.82-24.75Q287.62-24.75 289.27-24.33 290.92-23.9 292.17-23.05L292.17-23.05 292.17-29.55Q292.17-30.6 291.85-31.08 291.52-31.55 290.52-31.8L290.52-31.8 289.52-32 289.52-32.95 298.22-35.1 298.87-34.65 298.67-27.6 298.67-3.55Q298.67-2.6 299.02-1.98 299.37-1.35 300.27-1.1L300.27-1.1 300.82-0.95 300.82 0 292.52 0.55 292.07-1.55Q290.72-0.5 288.97 0.1 287.22 0.7 285.12 0.7ZM287.87-1.6L287.87-1.6Q290.02-1.6 291.92-3L291.92-3 291.92-21.6Q290.07-22.75 287.92-22.75L287.92-22.75Q285.47-22.75 283.72-20.18 281.97-17.6 281.97-11.9L281.97-11.9Q281.97-6.2 283.62-3.9 285.27-1.6 287.87-1.6ZM311.72 0.7L311.72 0.7Q309.32 0.7 307.39 0.18 305.47-0.35 303.72-1.3L303.72-1.3 303.72-7.2 305.07-7.2 306.57-4.35Q307.52-2.5 308.74-1.6 309.97-0.7 311.87-0.7L311.87-0.7Q314.22-0.7 315.62-1.73 317.02-2.75 317.02-4.5L317.02-4.5Q317.02-6.1 315.97-7.1 314.92-8.1 312.22-8.95L312.22-8.95 310.02-9.65Q307.07-10.55 305.34-12.38 303.62-14.2 303.62-16.95L303.62-16.95Q303.62-19.1 304.77-20.88 305.92-22.65 308.12-23.7 310.32-24.75 313.47-24.75L313.47-24.75Q315.52-24.75 317.24-24.28 318.97-23.8 320.62-22.95L320.62-22.95 320.32-17.6 319.02-17.6 317.47-20.45Q316.67-22.05 315.84-22.68 315.02-23.3 313.32-23.3L313.32-23.3Q311.52-23.3 310.14-22.38 308.77-21.45 308.77-19.8L308.77-19.8Q308.77-18.25 309.92-17.28 311.07-16.3 313.62-15.45L313.62-15.45 315.77-14.8Q319.42-13.65 320.97-11.75 322.52-9.85 322.52-7.2L322.52-7.2Q322.52-3.65 319.69-1.48 316.87 0.7 311.72 0.7Z" opacity="1" transform="matrix(1,0,0,1,0,0)" fill="#ffffff" class="wordmark-text-0" data-fill-palette-color="quaternary" id="text-0"></path></svg></g></svg></g></svg></g></svg></g><g transform="matrix(1,0,0,1,84.3431080560967,0)"><svg viewBox="0 0 44.472225114963706 44.591034800868236" height="44.591034800868236" width="44.472225114963706"><g><svg xmlns="http://www.w3.org/2000/svg" xmlns:xlink="http://www.w3.org/1999/xlink" version="1.1" x="0" y="0" viewBox="2.5 2.5 95.07799530029297 95.33200073242188" enable-background="new 0 0 100 100" xml:space="preserve" height="44.591034800868236" width="44.472225114963706" class="icon-icon-0" data-fill-palette-color="quaternary" id="icon-0"><g fill="#ffffff" data-fill-palette-color="quaternary"><path fill="#ffffff" d="M24.666 2.5H5.334C3.769 2.5 2.5 3.769 2.5 5.334v19.331c0 1.565 1.269 2.834 2.834 2.834h19.331c1.565 0 2.834-1.269 2.834-2.834V5.334C27.5 3.769 26.231 2.5 24.666 2.5z" data-fill-palette-color="quaternary"></path><path fill="#ffffff" d="M59.704 2.5H40.373c-1.565 0-2.834 1.269-2.834 2.834v19.331c0 1.565 1.269 2.834 2.834 2.834h19.331c1.565 0 2.835-1.269 2.835-2.834V5.334C62.539 3.769 61.27 2.5 59.704 2.5z" data-fill-palette-color="quaternary"></path><path fill="#ffffff" d="M94.742 2.5h-19.33c-1.566 0-2.835 1.269-2.835 2.834v19.331c0 1.565 1.269 2.834 2.835 2.834h19.33c1.566 0 2.836-1.269 2.836-2.834V5.334C97.578 3.769 96.309 2.5 94.742 2.5z" data-fill-palette-color="quaternary"></path><path fill="#ffffff" d="M24.666 37.667H5.334c-1.565 0-2.834 1.269-2.834 2.834v19.331c0 1.565 1.269 2.834 2.834 2.834h19.331c1.565 0 2.834-1.269 2.834-2.834V40.501C27.5 38.936 26.231 37.667 24.666 37.667z" data-fill-palette-color="quaternary"></path><path fill="#ffffff" d="M59.704 37.667H40.373c-1.565 0-2.834 1.269-2.834 2.834v19.331c0 1.565 1.269 2.834 2.834 2.834h19.331c1.565 0 2.835-1.269 2.835-2.834V40.501C62.539 38.936 61.27 37.667 59.704 37.667z" data-fill-palette-color="quaternary"></path><path fill="#ffffff" d="M94.742 37.667h-19.33c-1.566 0-2.835 1.269-2.835 2.834v19.331c0 1.565 1.269 2.834 2.835 2.834h19.33c1.566 0 2.836-1.269 2.836-2.834V40.501C97.578 38.936 96.309 37.667 94.742 37.667z" data-fill-palette-color="quaternary"></path><path fill="#ffffff" d="M24.666 72.833H5.334c-1.565 0-2.834 1.269-2.834 2.835v19.33c0 1.566 1.269 2.834 2.834 2.834h19.331c1.565 0 2.834-1.268 2.834-2.834v-19.33C27.5 74.102 26.231 72.833 24.666 72.833z" data-fill-palette-color="quaternary"></path><path fill="#ffffff" d="M59.704 72.833H40.373c-1.565 0-2.834 1.269-2.834 2.835v19.33c0 1.566 1.269 2.834 2.834 2.834h19.331c1.565 0 2.835-1.268 2.835-2.834v-19.33C62.539 74.102 61.27 72.833 59.704 72.833z" data-fill-palette-color="quaternary"></path><path fill="#ffffff" d="M94.742 72.833h-19.33c-1.566 0-2.835 1.269-2.835 2.835v19.33c0 1.566 1.269 2.834 2.835 2.834h19.33c1.566 0 2.836-1.268 2.836-2.834v-19.33C97.578 74.102 96.309 72.833 94.742 72.833z" data-fill-palette-color="quaternary"></path></g></svg></g></svg></g><g></g></svg></g></svg></g></svg></g></svg></g><defs></defs></svg><rect width="342.8515585177538" height="342.8515585177538" fill="none" stroke="none" visibility="hidden"></rect></g></svg></g></svg>