<svg xmlns="http://www.w3.org/2000/svg" version="1.1" xmlns:xlink="http://www.w3.org/1999/xlink" xmlns:svgjs="http://svgjs.dev/svgjs" viewBox="0 0 9.729590585422706 2.9441499115945806"><g transform="matrix(1,0,0,1,2.9141910925050563,0.47845620579729053)"><g><path d=" M 0.9975 0.8219999999999997 Q 0.9975 0.9179999999999997 0.94575 0.9779999999999998 Q 0.894 1.0379999999999998 0.807 1.0664999999999998 Q 0.72 1.0949999999999998 0.615 1.0949999999999998 L 0.0915 1.0949999999999998 L 0.0915 0.029999999999999805 L 0.7095 0.029999999999999805 Q 0.7845 0.029999999999999805 0.83925 0.06974999999999976 Q 0.894 0.10949999999999971 0.92325 0.17249999999999976 Q 0.9525 0.2354999999999997 0.9525 0.3029999999999997 Q 0.9525 0.3764999999999997 0.91425 0.4454999999999998 Q 0.876 0.5144999999999997 0.7995 0.5489999999999997 Q 0.891 0.5759999999999997 0.94425 0.6434999999999997 Q 0.9975 0.7109999999999997 0.9975 0.8219999999999997 M 0.7005 0.7619999999999998 Q 0.7005 0.7349999999999998 0.69075 0.7147499999999998 Q 0.681 0.6944999999999997 0.6645 0.6824999999999997 Q 0.648 0.6704999999999998 0.6255000000000001 0.6704999999999998 L 0.384 0.6704999999999998 L 0.384 0.8489999999999998 L 0.615 0.8489999999999998 Q 0.639 0.8489999999999998 0.6585 0.8384999999999998 Q 0.678 0.8279999999999997 0.68925 0.8084999999999998 Q 0.7005 0.7889999999999997 0.7005 0.7619999999999998 M 0.384 0.2789999999999997 L 0.384 0.4424999999999998 L 0.5835 0.4424999999999998 Q 0.603 0.4424999999999998 0.621 0.43574999999999975 Q 0.639 0.4289999999999997 0.651 0.4109999999999997 Q 0.663 0.3929999999999997 0.663 0.35999999999999976 Q 0.663 0.32999999999999974 0.65325 0.31274999999999975 Q 0.6435 0.29549999999999976 0.62775 0.2872499999999998 Q 0.612 0.2789999999999997 0.5925 0.2789999999999997 L 0.384 0.2789999999999997 M 1.36196044921875 0.029999999999999805 L 1.68896044921875 0.029999999999999805 L 2.0279604492187504 1.0949999999999998 L 1.7309604492187503 1.0949999999999998 L 1.66646044921875 0.8864999999999997 L 1.3829604492187502 0.8864999999999997 L 1.3199604492187502 1.0949999999999998 L 1.0214604492187502 1.0949999999999998 L 1.36196044921875 0.029999999999999805 M 1.61996044921875 0.6914999999999998 L 1.52546044921875 0.3164999999999998 L 1.4264604492187503 0.6914999999999998 L 1.61996044921875 0.6914999999999998 M 2.13144873046875 1.0949999999999998 L 2.13144873046875 0.029999999999999805 L 2.62044873046875 0.029999999999999805 Q 2.6984487304687503 0.029999999999999805 2.76444873046875 0.061499999999999666 Q 2.83044873046875 0.09299999999999975 2.87844873046875 0.14624999999999977 Q 2.92644873046875 0.19949999999999968 2.95269873046875 0.26549999999999974 Q 2.9789487304687503 0.3314999999999997 2.9789487304687503 0.3989999999999997 Q 2.9789487304687503 0.4604999999999997 2.9609487304687505 0.5174999999999997 Q 2.9429487304687503 0.5744999999999998 2.9084487304687503 0.6217499999999998 Q 2.8739487304687503 0.6689999999999998 2.8259487304687503 0.7034999999999998 L 3.0509487304687504 1.0949999999999998 L 2.72994873046875 1.0949999999999998 L 2.54244873046875 0.7679999999999998 L 2.42394873046875 0.7679999999999998 L 2.42394873046875 1.0949999999999998 L 2.13144873046875 1.0949999999999998 M 2.42394873046875 0.5129999999999998 L 2.6084487304687505 0.5129999999999998 Q 2.6264487304687503 0.5129999999999998 2.64294873046875 0.4994999999999997 Q 2.65944873046875 0.48599999999999977 2.67069873046875 0.4604999999999997 Q 2.68194873046875 0.4349999999999997 2.68194873046875 0.3989999999999997 Q 2.68194873046875 0.3614999999999997 2.66919873046875 0.33674999999999977 Q 2.6564487304687505 0.3119999999999997 2.6376987304687503 0.29849999999999977 Q 2.61894873046875 0.2849999999999997 2.60094873046875 0.2849999999999997 L 2.42394873046875 0.2849999999999997 L 2.42394873046875 0.5129999999999998 M 3.1589304199218753 1.0949999999999998 L 3.1589304199218753 0.029999999999999805 L 3.6479304199218756 0.029999999999999805 Q 3.7259304199218755 0.029999999999999805 3.7919304199218753 0.061499999999999666 Q 3.8579304199218756 0.09299999999999975 3.9059304199218756 0.14624999999999977 Q 3.9539304199218757 0.19949999999999968 3.9801804199218753 0.26549999999999974 Q 4.006430419921875 0.3314999999999997 4.006430419921875 0.3989999999999997 Q 4.006430419921875 0.4604999999999997 3.988430419921875 0.5174999999999997 Q 3.9704304199218754 0.5744999999999998 3.9359304199218754 0.6217499999999998 Q 3.9014304199218754 0.6689999999999998 3.8534304199218754 0.7034999999999998 L 4.078430419921876 1.0949999999999998 L 3.7574304199218753 1.0949999999999998 L 3.5699304199218753 0.7679999999999998 L 3.4514304199218753 0.7679999999999998 L 3.4514304199218753 1.0949999999999998 L 3.1589304199218753 1.0949999999999998 M 3.4514304199218753 0.5129999999999998 L 3.635930419921875 0.5129999999999998 Q 3.6539304199218754 0.5129999999999998 3.6704304199218756 0.4994999999999997 Q 3.6869304199218753 0.48599999999999977 3.6981804199218753 0.4604999999999997 Q 3.7094304199218753 0.4349999999999997 3.7094304199218753 0.3989999999999997 Q 3.7094304199218753 0.3614999999999997 3.6966804199218752 0.33674999999999977 Q 3.683930419921875 0.3119999999999997 3.6651804199218754 0.29849999999999977 Q 3.6464304199218756 0.2849999999999997 3.6284304199218753 0.2849999999999997 L 3.4514304199218753 0.2849999999999997 L 3.4514304199218753 0.5129999999999998 M 4.339423828125001 0.029999999999999805 L 4.529923828125001 0.46499999999999975 L 4.724923828125 0.029999999999999805 L 5.042923828125001 0.029999999999999805 L 4.675423828125 0.7424999999999997 L 4.675423828125 1.0949999999999998 L 4.3844238281250005 1.0949999999999998 L 4.3844238281250005 0.7394999999999998 L 4.022923828125 0.029999999999999805 L 4.339423828125001 0.029999999999999805 M 5.125447265625001 0.35099999999999976 L 5.125447265625001 -2.220446049250313e-16 L 5.365447265625001 -2.220446049250313e-16 L 5.365447265625001 0.35099999999999976 L 5.125447265625001 0.35099999999999976 M 6.196434082031251 0.3779999999999998 Q 6.196434082031251 0.3779999999999998 6.170934082031251 0.36299999999999977 Q 6.145434082031251 0.34799999999999975 6.103434082031251 0.3292499999999997 Q 6.0614340820312504 0.3104999999999998 6.011934082031251 0.29549999999999976 Q 5.962434082031251 0.28049999999999975 5.914434082031251 0.28049999999999975 Q 5.876934082031251 0.28049999999999975 5.8529340820312505 0.29249999999999976 Q 5.8289340820312505 0.30449999999999977 5.8289340820312505 0.33299999999999974 Q 5.8289340820312505 0.35999999999999976 5.8529340820312505 0.3764999999999997 Q 5.876934082031251 0.3929999999999997 5.9211840820312505 0.40649999999999975 Q 5.965434082031251 0.4199999999999997 6.026934082031251 0.4394999999999998 Q 6.125934082031251 0.4694999999999997 6.197934082031251 0.5084999999999997 Q 6.26993408203125 0.5474999999999998 6.308934082031251 0.6082499999999997 Q 6.347934082031251 0.6689999999999998 6.347934082031251 0.7694999999999997 Q 6.347934082031251 0.8654999999999997 6.313434082031251 0.9307499999999997 Q 6.278934082031251 0.9959999999999998 6.220434082031251 1.0349999999999997 Q 6.161934082031251 1.0739999999999998 6.089934082031251 1.0912499999999998 Q 6.017934082031251 1.1084999999999998 5.94293408203125 1.1084999999999998 Q 5.866434082031251 1.1084999999999998 5.783184082031251 1.0927499999999997 Q 5.699934082031251 1.0769999999999997 5.621934082031251 1.0492499999999998 Q 5.54393408203125 1.0214999999999999 5.479434082031251 0.9839999999999998 L 5.605434082031251 0.7274999999999998 Q 5.605434082031251 0.7274999999999998 5.635434082031251 0.7454999999999997 Q 5.6654340820312505 0.7634999999999997 5.714934082031251 0.7859999999999998 Q 5.764434082031251 0.8084999999999998 5.82518408203125 0.8264999999999998 Q 5.885934082031251 0.8444999999999998 5.947434082031251 0.8444999999999998 Q 5.995434082031251 0.8444999999999998 6.01418408203125 0.8317499999999998 Q 6.032934082031251 0.8189999999999997 6.032934082031251 0.7979999999999998 Q 6.032934082031251 0.7664999999999997 5.999934082031251 0.7492499999999997 Q 5.96693408203125 0.7319999999999998 5.913684082031251 0.7162499999999997 Q 5.860434082031251 0.7004999999999997 5.795934082031251 0.6794999999999998 Q 5.702934082031251 0.6479999999999997 5.642934082031251 0.6082499999999997 Q 5.582934082031251 0.5684999999999998 5.554434082031251 0.5137499999999997 Q 5.525934082031251 0.45899999999999974 5.525934082031251 0.3809999999999998 Q 5.525934082031251 0.26249999999999973 5.581434082031251 0.18299999999999972 Q 5.63693408203125 0.1034999999999997 5.727684082031251 0.062249999999999694 Q 5.818434082031251 0.020999999999999686 5.9234340820312505 0.020999999999999686 Q 6.001434082031251 0.020999999999999686 6.074184082031251 0.03974999999999973 Q 6.146934082031251 0.058499999999999774 6.210684082031251 0.08549999999999969 Q 6.2744340820312505 0.11249999999999971 6.322434082031251 0.13649999999999973 L 6.196434082031251 0.3779999999999998" fill="#ffffff" fill-rule="nonzero"></path></g><g><path d=" M 0.46725 1.8499874999999995 Q 0.46725 1.8897374999999996 0.447 1.9208624999999995 Q 0.42675 1.9519874999999995 0.392625 1.9696124999999995 Q 0.3585 1.9872374999999995 0.318 1.9872374999999995 L 0.06675 1.9872374999999995 L 0.06675 1.4547374999999996 L 0.32325 1.4547374999999996 Q 0.36075 1.4547374999999996 0.388125 1.4746124999999997 Q 0.41550000000000004 1.4944874999999995 0.43012500000000004 1.5256124999999996 Q 0.44475000000000003 1.5567374999999997 0.44475000000000003 1.5904874999999996 Q 0.44475000000000003 1.6302374999999996 0.4245 1.6639874999999995 Q 0.40425 1.6977374999999997 0.36825 1.7142374999999994 Q 0.41400000000000003 1.7277374999999995 0.440625 1.7644874999999995 Q 0.46725 1.8012374999999996 0.46725 1.8499874999999995 M 0.41475 1.8409874999999996 Q 0.41475 1.8139874999999996 0.40275 1.7911124999999997 Q 0.39075 1.7682374999999995 0.370125 1.7539874999999996 Q 0.34950000000000003 1.7397374999999995 0.32325 1.7397374999999995 L 0.11925000000000001 1.7397374999999995 L 0.11925000000000001 1.9414874999999996 L 0.318 1.9414874999999996 Q 0.34500000000000003 1.9414874999999996 0.36675 1.9272374999999995 Q 0.3885 1.9129874999999996 0.401625 1.8901124999999996 Q 0.41475 1.8672374999999994 0.41475 1.8409874999999996 M 0.11925000000000001 1.5004874999999995 L 0.11925000000000001 1.6969874999999996 L 0.30225 1.6969874999999996 Q 0.3285 1.6969874999999996 0.34875 1.6831124999999996 Q 0.369 1.6692374999999995 0.381 1.6467374999999995 Q 0.393 1.6242374999999996 0.393 1.5987374999999995 Q 0.393 1.5717374999999996 0.38175000000000003 1.5496124999999996 Q 0.3705 1.5274874999999994 0.35100000000000003 1.5139874999999996 Q 0.3315 1.5004874999999995 0.30675 1.5004874999999995 L 0.11925000000000001 1.5004874999999995 M 0.7882617187500001 1.9909874999999995 Q 0.73201171875 1.9909874999999995 0.6862617187500001 1.9684874999999995 Q 0.64051171875 1.9459874999999995 0.6075117187500001 1.9073624999999996 Q 0.5745117187500001 1.8687374999999995 0.55651171875 1.8203624999999994 Q 0.53851171875 1.7719874999999996 0.53851171875 1.7209874999999997 Q 0.53851171875 1.6677374999999994 0.5572617187500001 1.6193624999999996 Q 0.57601171875 1.5709874999999995 0.6101367187500001 1.5331124999999997 Q 0.64426171875 1.4952374999999996 0.6900117187500001 1.4731124999999996 Q 0.7357617187500001 1.4509874999999997 0.7890117187500001 1.4509874999999997 Q 0.84526171875 1.4509874999999997 0.8910117187500001 1.4742374999999996 Q 0.9367617187500001 1.4974874999999996 0.96938671875 1.5364874999999996 Q 1.00201171875 1.5754874999999995 1.0200117187500002 1.6234874999999995 Q 1.03801171875 1.6714874999999996 1.03801171875 1.7217374999999995 Q 1.03801171875 1.7749874999999995 1.0192617187500002 1.8233624999999996 Q 1.0005117187500001 1.8717374999999996 0.96676171875 1.9096124999999995 Q 0.93301171875 1.9474874999999996 0.88726171875 1.9692374999999995 Q 0.8415117187500001 1.9909874999999995 0.7882617187500001 1.9909874999999995 M 0.59101171875 1.7209874999999997 Q 0.59101171875 1.7644874999999995 0.60526171875 1.8046124999999995 Q 0.6195117187500001 1.8447374999999995 0.6457617187500001 1.8758624999999995 Q 0.6720117187500001 1.9069874999999996 0.70838671875 1.9253624999999996 Q 0.7447617187500001 1.9437374999999995 0.7882617187500001 1.9437374999999995 Q 0.83401171875 1.9437374999999995 0.8703867187500001 1.9246124999999996 Q 0.9067617187500001 1.9054874999999996 0.9326367187500001 1.8736124999999995 Q 0.9585117187500001 1.8417374999999996 0.9720117187500001 1.8019874999999996 Q 0.9855117187500001 1.7622374999999995 0.9855117187500001 1.7209874999999997 Q 0.9855117187500001 1.6774874999999996 0.9712617187500001 1.6377374999999996 Q 0.95701171875 1.5979874999999995 0.9303867187500001 1.5664874999999996 Q 0.90376171875 1.5349874999999995 0.8677617187500001 1.5169874999999995 Q 0.83176171875 1.4989874999999995 0.7882617187500001 1.4989874999999995 Q 0.7432617187500001 1.4989874999999995 0.7068867187500001 1.5177374999999995 Q 0.67051171875 1.5364874999999996 0.6446367187500001 1.5683624999999997 Q 0.6187617187500001 1.6002374999999995 0.6048867187500001 1.6399874999999995 Q 0.59101171875 1.6797374999999994 0.59101171875 1.7209874999999997 M 1.289993408203125 1.4547374999999996 L 1.3342434082031251 1.4547374999999996 L 1.555493408203125 1.9872374999999995 L 1.4999934082031252 1.9872374999999995 L 1.430993408203125 1.8207374999999995 L 1.191743408203125 1.8207374999999995 L 1.1234934082031252 1.9872374999999995 L 1.067243408203125 1.9872374999999995 L 1.289993408203125 1.4547374999999996 M 1.418993408203125 1.7794874999999994 L 1.3117434082031252 1.5162374999999995 L 1.202993408203125 1.7794874999999994 L 1.418993408203125 1.7794874999999994 M 1.6395124511718753 1.9872374999999995 L 1.6395124511718753 1.4547374999999996 L 1.8645124511718751 1.4547374999999996 Q 1.8990124511718751 1.4547374999999996 1.927512451171875 1.4689874999999994 Q 1.9560124511718753 1.4832374999999995 1.9773874511718752 1.5076124999999996 Q 1.9987624511718751 1.5319874999999996 2.010387451171875 1.5616124999999994 Q 2.022012451171875 1.5912374999999996 2.022012451171875 1.6219874999999995 Q 2.022012451171875 1.6602374999999996 2.007387451171875 1.6939874999999995 Q 1.9927624511718751 1.7277374999999995 1.9661374511718752 1.7509874999999995 Q 1.939512451171875 1.7742374999999995 1.903512451171875 1.7817374999999995 L 2.034012451171875 1.9872374999999995 L 1.974762451171875 1.9872374999999995 L 1.8495124511718752 1.7907374999999996 L 1.6920124511718753 1.7907374999999996 L 1.6920124511718753 1.9872374999999995 L 1.6395124511718753 1.9872374999999995 M 1.6920124511718753 1.7442374999999997 L 1.8660124511718752 1.7442374999999997 Q 1.8975124511718753 1.7442374999999997 1.9207624511718753 1.7269874999999995 Q 1.9440124511718753 1.7097374999999995 1.9567624511718753 1.6816124999999995 Q 1.9695124511718751 1.6534874999999996 1.9695124511718751 1.6219874999999995 Q 1.9695124511718751 1.5897374999999996 1.9548874511718752 1.5623624999999994 Q 1.9402624511718751 1.5349874999999995 1.915887451171875 1.5181124999999995 Q 1.8915124511718753 1.5012374999999996 1.8615124511718752 1.5012374999999996 L 1.6920124511718753 1.5012374999999996 L 1.6920124511718753 1.7442374999999997 M 2.1367738037109376 1.9872374999999995 L 2.1367738037109376 1.4547374999999996 L 2.317523803710938 1.4547374999999996 Q 2.402273803710938 1.4547374999999996 2.458898803710938 1.4903624999999996 Q 2.5155238037109378 1.5259874999999996 2.544023803710938 1.5863624999999995 Q 2.5725238037109377 1.6467374999999995 2.5725238037109377 1.7202374999999996 Q 2.5725238037109377 1.8012374999999996 2.541398803710938 1.8612374999999997 Q 2.5102738037109376 1.9212374999999995 2.4528988037109376 1.9542374999999996 Q 2.3955238037109376 1.9872374999999995 2.317523803710938 1.9872374999999995 L 2.1367738037109376 1.9872374999999995 M 2.520023803710938 1.7202374999999996 Q 2.520023803710938 1.6564874999999994 2.496398803710938 1.6069874999999996 Q 2.472773803710938 1.5574874999999995 2.427773803710938 1.5293624999999995 Q 2.3827738037109376 1.5012374999999996 2.317523803710938 1.5012374999999996 L 2.189273803710938 1.5012374999999996 L 2.189273803710938 1.9407374999999996 L 2.317523803710938 1.9407374999999996 Q 2.3835238037109376 1.9407374999999996 2.4285238037109376 1.9114874999999996 Q 2.473523803710938 1.8822374999999996 2.496773803710938 1.8323624999999995 Q 2.520023803710938 1.7824874999999996 2.520023803710938 1.7202374999999996 M 2.9917939453125006 1.5544874999999996 Q 2.9805439453125007 1.5417374999999995 2.9655439453125005 1.5316124999999996 Q 2.9505439453125004 1.5214874999999997 2.9317939453125006 1.5139874999999996 Q 2.9130439453125003 1.5064874999999995 2.8916689453125004 1.5019874999999996 Q 2.8702939453125005 1.4974874999999996 2.8462939453125005 1.4974874999999996 Q 2.7765439453125005 1.4974874999999996 2.7439189453125006 1.5241124999999995 Q 2.7112939453125007 1.5507374999999994 2.7112939453125007 1.5964874999999996 Q 2.7112939453125007 1.6279874999999995 2.7266689453125004 1.6459874999999995 Q 2.7420439453125005 1.6639874999999995 2.7750439453125004 1.6752374999999995 Q 2.8080439453125003 1.6864874999999995 2.8590439453125005 1.6984874999999995 Q 2.9160439453125004 1.7104874999999995 2.9572939453125007 1.7269874999999995 Q 2.9985439453125005 1.7434874999999996 3.0210439453125004 1.7716124999999996 Q 3.0435439453125004 1.7997374999999995 3.0435439453125004 1.8477374999999996 Q 3.0435439453125004 1.8844874999999996 3.0292939453125007 1.9114874999999996 Q 3.0150439453125006 1.9384874999999995 2.9895439453125006 1.9564874999999995 Q 2.9640439453125005 1.9744874999999995 2.9287939453125005 1.9831124999999996 Q 2.8935439453125005 1.9917374999999995 2.8515439453125007 1.9917374999999995 Q 2.8102939453125004 1.9917374999999995 2.7724189453125003 1.9831124999999996 Q 2.7345439453125007 1.9744874999999995 2.7007939453125007 1.9576124999999995 Q 2.6670439453125003 1.9407374999999996 2.6377939453125006 1.9144874999999995 L 2.6640439453125007 1.8717374999999996 Q 2.6782939453125003 1.8867374999999995 2.6981689453125006 1.8998624999999996 Q 2.7180439453125005 1.9129874999999996 2.7424189453125005 1.9234874999999996 Q 2.7667939453125006 1.9339874999999995 2.7949189453125007 1.9396124999999995 Q 2.8230439453125005 1.9452374999999995 2.8530439453125007 1.9452374999999995 Q 2.9167939453125005 1.9452374999999995 2.9524189453125005 1.9219874999999995 Q 2.9880439453125005 1.8987374999999995 2.9880439453125005 1.8529874999999996 Q 2.9880439453125005 1.8199874999999994 2.9700439453125007 1.8001124999999996 Q 2.9520439453125005 1.7802374999999995 2.9160439453125004 1.7674874999999997 Q 2.8800439453125004 1.7547374999999996 2.8275439453125006 1.7427374999999996 Q 2.7720439453125003 1.7299874999999996 2.7337939453125006 1.7142374999999994 Q 2.6955439453125005 1.6984874999999995 2.6764189453125007 1.6726124999999996 Q 2.6572939453125004 1.6467374999999995 2.6572939453125004 1.6039874999999995 Q 2.6572939453125004 1.5544874999999996 2.6816689453125004 1.5203624999999996 Q 2.7060439453125005 1.4862374999999997 2.7487939453125003 1.4686124999999994 Q 2.7915439453125006 1.4509874999999997 2.8470439453125005 1.4509874999999997 Q 2.8822939453125005 1.4509874999999997 2.9126689453125003 1.4581124999999995 Q 2.9430439453125006 1.4652374999999995 2.9689189453125007 1.4787374999999994 Q 2.9947939453125008 1.4922374999999994 3.0172939453125007 1.5124874999999995 L 2.9917939453125006 1.5544874999999996" fill="#ffffff" fill-rule="nonzero"></path></g><g clip-path="url(&quot;#SvgjsClipPath1001&quot;)"><g clip-path="url(&quot;#SvgjsClipPath1000&quot;)"><path d=" M -0.7010569307335064 0.020980496126541015 L -2.414754390581224 0.020980496126541015 L -2.414754390581224 1.734677955974259 L -0.7010569307335064 1.734677955974259 Z M -2.484232273415531 -0.04849738670776582 L -2.484232273415531 1.8041558388085654 L -0.6315790478991998 1.8041558388085654 L -0.6315790478991998 -0.04849738670776582 Z" fill="#ffffff" transform="matrix(1,0,0,1,0,0)" fill-rule="evenodd"></path></g><g clip-path="url(&quot;#SvgjsClipPath1000&quot;)"><path d=" M -0.4694778828343067 0.2525595440257406 L -2.183175342682025 0.2525595440257406 L -2.183175342682025 1.9662570038734586 L -0.4694778828343067 1.9662570038734586 Z M -2.2526532255163314 0.18308166119143393 L -2.2526532255163314 2.0357348867077656 L -0.3999999999999999 2.0357348867077656 L -0.3999999999999999 0.18308166119143393 Z" fill="#ffffff" transform="matrix(1,0,0,1,0,0)" fill-rule="evenodd"></path></g><path d=" M -1.853632896639369 1.275039019334869 C -1.8642026720134484 1.275039019334869 -1.873090892214379 1.2714356868209782 -1.8802975572421605 1.2642290217931968 C -1.887504222269942 1.257022356765415 -1.891107554783833 1.2481341365644845 -1.891107554783833 1.237564361190405 L -1.891107554783833 0.7496731388095945 C -1.891107554783833 0.7386229191003295 -1.887504222269942 0.7296145878156026 -1.8802975572421605 0.7226481449554139 C -1.873090892214379 0.715681702095225 -1.8642026720134484 0.7121984806651306 -1.853632896639369 0.7121984806651306 L -1.68139360247539 0.7121984806651306 C -1.6487233876827803 0.7121984806651306 -1.6200168386554505 0.7185643681063376 -1.5952739553934006 0.7312961429887517 C -1.5705310721313506 0.7440279178711657 -1.5510730765563405 0.7616842471892304 -1.53689996866837 0.784265130942946 C -1.5227268607803996 0.8068460146966614 -1.5156403068364144 0.832790008796675 -1.5156403068364144 0.8620971132429867 C -1.5156403068364144 0.8856388856670729 -1.5220061942776215 0.9068985474990285 -1.5347379691600356 0.9258760987388532 C -1.5474697440424496 0.9448536499786779 -1.5648858511929218 0.9598675354532229 -1.5869862906114518 0.9709177551624879 C -1.555276964489213 0.9786048645254549 -1.529813414724385 0.9937388610837962 -1.5105956413169674 1.0163197448375116 C -1.49137786790955 1.038900628591227 -1.4817689812058412 1.0684479552051314 -1.4817689812058412 1.1049617246792245 C -1.4817689812058412 1.1381123838070195 -1.4895762016526046 1.1674194882533313 -1.5051906425461312 1.1928830380181594 C -1.520805083439658 1.2183465877829875 -1.5425451896067988 1.2384051387769794 -1.5704109610475543 1.2530586910001353 C -1.5982767324883096 1.2677122432232912 -1.6302262807781411 1.275039019334869 -1.6662596059170487 1.275039019334869 L -1.853632896639369 1.275039019334869 M -1.8161582384949049 1.2058550350681663 L -1.6662596059170487 1.2058550350681663 C -1.6441591664985187 1.2058550350681663 -1.6247011709235084 1.2020114803866826 -1.6078856191920181 1.1943243710237157 C -1.591070067460528 1.1866372616607488 -1.5778578482429286 1.175346819783891 -1.5682489615392197 1.1604530453931425 C -1.5586400748355111 1.1455592710023939 -1.5538356314836568 1.1270621640977547 -1.5538356314836568 1.1049617246792245 C -1.5538356314836568 1.0843026182662507 -1.5586400748355111 1.0672468443671679 -1.5682489615392197 1.0537944029819757 C -1.5778578482429286 1.0403419615967835 -1.591070067460528 1.0301325194740931 -1.6078856191920181 1.023166076613904 C -1.6247011709235084 1.0161996337537154 -1.6441591664985187 1.012716412323621 -1.6662596059170487 1.012716412323621 L -1.8161582384949049 1.012716412323621 L -1.8161582384949049 1.2058550350681663 M -1.8161582384949049 0.9435324280569181 L -1.68139360247539 0.9435324280569181 C -1.6540082753698202 0.9435324280569181 -1.631547502699901 0.936806207364322 -1.6140112844656325 0.9233537659791298 C -1.596475066231364 0.9099013245939376 -1.58770695711423 0.8894824403485564 -1.58770695711423 0.8620971132429867 C -1.58770695711423 0.8347117861374167 -1.596475066231364 0.814413012975832 -1.6140112844656325 0.8012007937582326 C -1.631547502699901 0.7879885745406331 -1.6540082753698202 0.7813824649318333 -1.68139360247539 0.7813824649318333 L -1.8161582384949049 0.7813824649318333 L -1.8161582384949049 0.9435324280569181 M -1.3325748282854861 1.275039019334869 C -1.3431446036595656 1.275039019334869 -1.3520328238604962 1.2714356868209782 -1.359239488888278 1.2642290217931968 C -1.3664461539160593 1.257022356765415 -1.3700494864299502 1.2481341365644845 -1.3700494864299502 1.237564361190405 L -1.3700494864299502 0.7496731388095945 C -1.3700494864299502 0.7386229191003295 -1.3664461539160593 0.7296145878156026 -1.359239488888278 0.7226481449554139 C -1.3520328238604962 0.715681702095225 -1.3431446036595656 0.7121984806651306 -1.3325748282854861 0.7121984806651306 L -1.1603355341215071 0.7121984806651306 C -1.1276653193288975 0.7121984806651306 -1.0989587703015677 0.7185643681063376 -1.0742158870395175 0.7312961429887517 C -1.0494730037774678 0.7440279178711657 -1.0300150082024575 0.7616842471892304 -1.0158419003144874 0.784265130942946 C -1.0016687924265169 0.8068460146966614 -0.9945822384825317 0.832790008796675 -0.9945822384825317 0.8620971132429867 C -0.9945822384825317 0.8856388856670729 -1.0009481259237387 0.9068985474990285 -1.0136799008061526 0.9258760987388532 C -1.0264116756885668 0.9448536499786779 -1.043827782839039 0.9598675354532229 -1.0659282222575688 0.9709177551624879 C -1.0342188961353302 0.9786048645254549 -1.0087553463705021 0.9937388610837962 -0.9895375729630845 1.0163197448375116 C -0.9703197995556672 1.038900628591227 -0.9607109128519584 1.0684479552051314 -0.9607109128519584 1.1049617246792245 C -0.9607109128519584 1.1381123838070195 -0.9685181332987218 1.1674194882533313 -0.9841325741922485 1.1928830380181594 C -0.9997470150857752 1.2183465877829875 -1.0214871212529162 1.2384051387769794 -1.0493528926936713 1.2530586910001353 C -1.0772186641344268 1.2677122432232912 -1.1091682124242581 1.275039019334869 -1.1452015375631661 1.275039019334869 L -1.3325748282854861 1.275039019334869 M -1.295100170141022 1.2058550350681663 L -1.1452015375631661 1.2058550350681663 C -1.123101098144636 1.2058550350681663 -1.1036431025696256 1.2020114803866826 -1.0868275508381355 1.1943243710237157 C -1.0700119991066455 1.1866372616607488 -1.0567997798890456 1.175346819783891 -1.0471908931853369 1.1604530453931425 C -1.0375820064816283 1.1455592710023939 -1.0327775631297738 1.1270621640977547 -1.0327775631297738 1.1049617246792245 C -1.0327775631297738 1.0843026182662507 -1.0375820064816283 1.0672468443671679 -1.0471908931853369 1.0537944029819757 C -1.0567997798890456 1.0403419615967835 -1.0700119991066455 1.0301325194740931 -1.0868275508381355 1.023166076613904 C -1.1036431025696256 1.0161996337537154 -1.123101098144636 1.012716412323621 -1.1452015375631661 1.012716412323621 L -1.295100170141022 1.012716412323621 L -1.295100170141022 1.2058550350681663 M -1.295100170141022 0.9435324280569181 L -1.1603355341215071 0.9435324280569181 C -1.1329502070159374 0.9435324280569181 -1.110489434346018 0.936806207364322 -1.09295321611175 0.9233537659791298 C -1.0754169978774812 0.9099013245939376 -1.0666488887603471 0.8894824403485564 -1.0666488887603471 0.8620971132429867 C -1.0666488887603471 0.8347117861374167 -1.0754169978774812 0.814413012975832 -1.09295321611175 0.8012007937582326 C -1.110489434346018 0.7879885745406331 -1.1329502070159374 0.7813824649318333 -1.1603355341215071 0.7813824649318333 L -1.295100170141022 0.7813824649318333 L -1.295100170141022 0.9435324280569181" fill="#ffffff" transform="matrix(1,0,0,1,0,0)" fill-rule="nonzero"></path></g></g><defs><clipPath id="SvgjsClipPath1001"><path d=" M -2.484232273415531 -0.04849738670776582 h 2.084232273415531 v 2.084232273415531 h -2.084232273415531 Z"></path></clipPath><clipPath id="SvgjsClipPath1000"><path d=" M -2.484232273415531 -0.04849738670776582 L -0.3999999999999999 -0.04849738670776582 L -0.3999999999999999 2.0357348867077656 L -2.484232273415531 2.0357348867077656 Z"></path></clipPath></defs></svg>